<svg xmlns="http://www.w3.org/2000/svg" version="1.1" xmlns:xlink="http://www.w3.org/1999/xlink" width="2000" height="1500" viewBox="0 0 2000 1500"><rect width="2000" height="1500" x="0" y="0" id="background" stroke="transparent" fill="#ffffff"></rect><svg xml:space="preserve" width="1500" height="1125" data-version="2" data-id="lg_GXxCCQNVePkL6NqLEC" viewBox="0 0 600 111" x="250" y="187.5"><rect width="100%" height="100%" fill="transparent"></rect><rect width="587" height="108.48" x="-293.5" y="-54.24" fill="none" rx="0" ry="0" transform="translate(300 55.5)"></rect><path fill="#111" d="M56.5 87.01q-7.4 0-13.2-2.06-5.81-2.07-9.89-6.15t-6.19-10.12q-2.12-6.05-2.12-14.02 0-8.06 2.16-14.3t6.24-10.61 9.65-6.58 12.39-2.21q5.28 0 9.79 1.4 4.51 1.39 7.77 3.98 3.27 2.59 5.14 6.34 1.87 3.74 1.97 8.44l-12.77 3.36q0-4.03-1.78-6.72-1.77-2.68-4.6-4.08-2.84-1.39-6-1.39-2.79 0-5.52 1.11-2.74 1.1-5 3.64-2.25 2.55-3.64 6.68-1.4 4.12-1.4 10.08 0 7.77 2.26 12.57t6.19 7.06q3.94 2.25 8.83 2.25 5.28 0 8.21-2.16t4.23-5.56q1.29-3.41 1.39-7.25l12.09 2.01q-.09 5.09-1.53 9.56-1.44 4.46-4.51 7.77-3.08 3.31-8.07 5.14-4.99 1.82-12.09 1.82m43.09 0q-4.22 0-7.49-1.68-3.26-1.68-5.09-4.85-1.82-3.16-1.82-7.87 0-4.13 1.58-6.91 1.59-2.78 4.66-4.51t7.58-2.88q4.52-1.15 10.28-2.02 3.07-.48 5.04-.91 1.96-.43 2.92-1.44t.96-2.93q0-2.69-1.92-4.61t-6.04-1.92q-2.79 0-5.14.96t-4.03 2.88-2.45 4.9l-12.19-3.74q1.15-3.94 3.31-6.82t5.23-4.85 7.01-2.93 8.54-.96q7.4 0 12.05 2.36 4.66 2.35 6.96 7.29 2.31 4.95 2.31 12.72v8.64q0 3.36.14 6.82.14 3.45.38 6.96.24 3.5.53 6.96h-12.19q-.38-2.4-.72-5.52t-.53-6.29h-1.73q-1.34 3.65-3.84 6.62-2.49 2.98-6.09 4.76-3.6 1.77-8.21 1.77m5.86-9.98q1.82 0 3.69-.67 1.87-.68 3.65-1.88t3.26-3.02q1.49-1.82 2.45-4.13l-.19-8.06 2.21.48q-1.73 1.25-4.03 1.97-2.31.72-4.76 1.1-2.44.38-4.84.86t-4.28 1.25q-1.87.77-2.97 2.07-1.11 1.29-1.11 3.6 0 2.97 1.92 4.7t5 1.73m48.19 8.64h-13.92v-50.4h11.42l.1 17.18h1.82q.77-6.43 2.64-10.46t5.23-5.95 8.36-1.92q.86 0 1.87.04 1.01.05 2.35.34l-.58 14.69q-1.44-.67-3.16-.96-1.73-.29-3.08-.29-3.74 0-6.43 1.73t-4.37 4.94q-1.68 3.22-2.25 7.83zm46.95 1.34q-6.24 0-11.09-1.73-4.84-1.72-8.2-4.99-3.36-3.26-5.14-8.06t-1.78-10.85q0-5.95 1.68-10.99t4.95-8.74q3.26-3.69 7.97-5.71 4.7-2.02 10.65-2.02 5.76 0 10.27 1.88 4.52 1.87 7.54 5.61 3.02 3.75 4.42 9.17 1.39 5.42 1 12.43l-39.55.39v-7.59l31.59-.29-4.9 3.84q.67-5.08-.67-8.35-1.35-3.26-3.89-4.8-2.54-1.53-5.62-1.53-3.64 0-6.43 1.92-2.78 1.92-4.32 5.61-1.53 3.7-1.53 8.88 0 8.16 3.6 12t9.45 3.84q2.69 0 4.56-.72t3.07-1.87 1.92-2.59 1.2-2.88l12 2.59q-.86 3.55-2.54 6.38-1.68 2.84-4.46 4.9-2.79 2.06-6.68 3.17-3.88 1.1-9.07 1.1m51.46 0q-6.53 0-11.43-1.92-4.89-1.92-8.16-5.37-3.26-3.46-4.89-8.21t-1.63-10.42q0-5.95 1.68-10.89 1.68-4.95 4.94-8.6 3.26-3.64 8.06-5.66t10.95-2.02q6.14 0 10.7 2.02t7.39 5.62q2.84 3.6 3.89 8.49l-12.77 4.13q-.28-2.98-1.58-5.14t-3.46-3.26-4.84-1.1q-2.79 0-4.8 1.1-2.02 1.1-3.41 3.17-1.39 2.06-2.11 4.99t-.72 6.58q0 5.18 1.39 8.78t4.13 5.47q2.73 1.87 6.76 1.87 3.84 0 6.15-1.48 2.3-1.49 3.41-3.84 1.1-2.36 1.39-4.85l12.09 2.69q-.48 3.74-2.06 7-1.58 3.27-4.46 5.67t-6.96 3.79-9.65 1.39m49.64 0q-7.58 0-13.34-3.02-5.76-3.03-9.03-8.93-3.26-5.9-3.26-14.74 0-8.83 3.31-14.68 3.31-5.86 9.12-8.79t13.2-2.93q7.58 0 13.39 2.98t9.12 8.88 3.31 14.74q0 8.92-3.4 14.83-3.41 5.9-9.22 8.78t-13.2 2.88m.48-10.27q3.74 0 6.29-1.73 2.54-1.73 3.84-5.23 1.29-3.5 1.29-8.5 0-5.28-1.39-8.97-1.39-3.7-4.08-5.67-2.69-1.96-6.81-1.96-3.56 0-6.15 1.68t-3.93 5.18q-1.35 3.5-1.35 8.59 0 8.16 3.27 12.39 3.26 4.22 9.02 4.22m44.74 8.93h-13.83v-50.4h11.33l-.1 15.07h1.92q1.25-5.47 3.56-9.12 2.3-3.65 5.8-5.47 3.51-1.83 8.31-1.83 8.73 0 13.29 6.15 4.56 6.14 4.56 19.29v26.31h-13.92V60.9q0-8.06-2.35-11.76t-6.86-3.7q-3.84 0-6.43 2.4-2.6 2.4-3.89 6.29-1.3 3.89-1.39 8.69zm56.34 0h-13.83v-50.4h11.33l-.09 15.07h1.92q1.24-5.47 3.55-9.12 2.3-3.65 5.81-5.47 3.5-1.83 8.3-1.83 8.74 0 13.3 6.15 4.56 6.14 4.56 19.29v26.31h-13.92V60.9q0-8.06-2.36-11.76-2.35-3.7-6.86-3.7-3.84 0-6.43 2.4t-3.89 6.29-1.39 8.69zm65.95 1.34q-6.24 0-11.09-1.73-4.85-1.72-8.21-4.99-3.36-3.26-5.13-8.06-1.78-4.8-1.78-10.85 0-5.95 1.68-10.99t4.95-8.74q3.26-3.69 7.96-5.71 4.71-2.02 10.66-2.02 5.76 0 10.27 1.88 4.51 1.87 7.54 5.61 3.02 3.75 4.41 9.17 1.4 5.42 1.01 12.43l-39.55.39v-7.59l31.58-.29-4.89 3.84q.67-5.08-.67-8.35-1.35-3.26-3.89-4.8-2.55-1.53-5.62-1.53-3.65 0-6.43 1.92t-4.32 5.61q-1.54 3.7-1.54 8.88 0 8.16 3.6 12t9.46 3.84q2.69 0 4.56-.72t3.07-1.87 1.92-2.59 1.2-2.88l12 2.59q-.86 3.55-2.54 6.38-1.68 2.84-4.47 4.9-2.78 2.06-6.67 3.17-3.89 1.1-9.07 1.1m51.46 0q-6.53 0-11.43-1.92-4.89-1.92-8.16-5.37-3.26-3.46-4.89-8.21-1.64-4.75-1.64-10.42 0-5.95 1.68-10.89 1.68-4.95 4.95-8.6 3.26-3.64 8.06-5.66t10.95-2.02q6.14 0 10.7 2.02t7.39 5.62 3.89 8.49l-12.77 4.13q-.29-2.98-1.58-5.14-1.3-2.16-3.46-3.26t-4.85-1.1q-2.78 0-4.8 1.1-2.01 1.1-3.4 3.17-1.4 2.06-2.12 4.99t-.72 6.58q0 5.18 1.4 8.78 1.39 3.6 4.12 5.47 2.74 1.87 6.77 1.87 3.84 0 6.15-1.48 2.3-1.49 3.4-3.84 1.11-2.36 1.4-4.85l12.09 2.69q-.48 3.74-2.06 7-1.59 3.27-4.47 5.67t-6.96 3.79-9.64 1.39m45.5-.2q-8.45 0-12.43-4.46-3.99-4.47-3.99-14.26V46.11h-7.29l.19-10.85h5.09q2.97 0 4.41-.87 1.44-.86 1.73-3.16l1.25-7.2h7.87v11.23h12.77v11.23h-12.77v21.02q0 3.46 1.63 5 1.64 1.53 5 1.53 1.82 0 3.5-.38 1.68-.39 2.93-1.25v12.86q-2.98.96-5.47 1.25-2.5.29-4.42.29"></path></svg></svg>